<svg id="dropdown-arrow" xmlns="http://www.w3.org/2000/svg" width="21" height="14.28" viewBox="0 0 21 14.28">
  <defs>
    <style>
      .cls-1 {
        fill: #c4c4c4;
      }
    </style>
  </defs>
  <path id="Dropdown_Arrow" data-name="Dropdown Arrow" class="cls-1" d="M20.987,2.9c-.1,1.155-1.258,2.087-1.97,2.917-2.075,2.42-4.2,5.057-6.382,7.365a2.768,2.768,0,0,1-2.022,1.1,2.69,2.69,0,0,1-2.129-.99C5.725,10.4,3.236,7.062.516,4.121A2.562,2.562,0,0,1,3.691.281c.842.414,2.38,2.411,3.074,3.2,1.221,1.386,2.418,2.8,3.633,4.188l.128.073,5.751-6.584A2.579,2.579,0,0,1,20.987,2.9Z" transform="translate(0)"/>
</svg>
