<svg xmlns="http://www.w3.org/2000/svg" width="30" height="30" viewBox="0 0 30 30">
  <defs>
    <style>
      .cls-1 {
        fill: #050505;
      }
    </style>
  </defs>
  <path id="Icon_-_Email" data-name="Icon - Email" class="cls-1" d="M23.4,6.732c.081.022.281.232.22.357L20.549,17.862c-.5,3.086,2.606,1.869,4,.553A8.784,8.784,0,0,0,21.965,4.057a13.339,13.339,0,0,0-18.222,11C2.866,26.49,14.33,29.2,23.417,24.794c1.9.415,2.029,2.224.347,3.144C16.777,31.754,5.125,30.4,1.492,22.824-4.625,10.074,9.165-4.385,22.944,1.256c7.283,2.98,9.17,12.2,4.523,18.077-2.208,2.789-7.888,5.807-10.511,2.036-1.806,1.386-3.481,2.13-5.836,1.449-4.457-1.289-4.131-7.2-2.808-10.56,1.642-4.18,6.929-8.043,10.931-3.967.008-.563.374-1.557,1.063-1.557A24.077,24.077,0,0,1,23.4,6.732ZM15.618,9.881c-2.98.42-4.551,6.266-3.668,8.565.772,2.016,3.1,1.5,4.172.014.784-1.094,2.16-5.537,1.945-6.788a2.231,2.231,0,0,0-2.446-1.794Z"/>
</svg>
