<svg xmlns="http://www.w3.org/2000/svg" width="30" height="30" viewBox="0 0 30 30">
  <path id="Icon_-_Facebook" data-name="Icon - Facebook" d="M17.588,30h-.022c-.292-.042-.334-.287-.343-.552,0-1.856-.024-7.262.009-9.063.044-.356.229-.387.637-.427.624-.119,2.253.248,2.625-.424a2.376,2.376,0,0,0,.2-.689c.1-.623.246-1.529.33-2.123.088-.579.086-1-.723-.994-.541-.022-1.361,0-1.926-.013-.594.016-1.126-.086-1.128-.76a11,11,0,0,1,.136-3.014c.422-.875,1.462-1.1,2.495-1.275.868-.091,1.528-.1,1.515-1.189.009-1.182.257-2.594-1.363-2.6-4.258-.5-7.4,1.246-7.428,5.806,0,.444,0,1,0,1.5-.037.793.143,1.425-.736,1.509a12.722,12.722,0,0,0-2.451.157c-.321.166-.312.581-.33.908-.007.6-.007,1.491,0,2.1.018.351-.007.8.354.968a15.678,15.678,0,0,0,2.6.139c.514.033.556.247.558.634,0,1.593,0,6.938,0,8.754.1,1.027-1.033.55-1.649.391a15.19,15.19,0,0,1-5.942-3.356A15.37,15.37,0,0,1,2.717,6.334c5.959-9.046,20.489-8.257,25.391,1.43C33.132,16.58,27.647,28.42,17.588,30Z"/>
</svg>
