<svg id="Icon_-_Open" data-name="Icon - Open" xmlns="http://www.w3.org/2000/svg" width="40" height="19.075" viewBox="0 0 40 19.075">
  <path id="Path_73" data-name="Path 73" d="M3.9.373c9.941.515,21.089-.96,30.89-.094,2.65.233,4.626,1.649,5,4.393a60.293,60.293,0,0,1,.031,9.708,4.983,4.983,0,0,1-4.7,4.7l-31.5-.16c-1.69-.9-3.04-1.906-3.381-3.923A58.068,58.068,0,0,1,.154,5.322,5.2,5.2,0,0,1,3.9.373Zm.689,2.08A3.289,3.289,0,0,0,2.238,5.667a53.6,53.6,0,0,0,.09,8.988,3.626,3.626,0,0,0,2,2.177L34.787,17a3.365,3.365,0,0,0,2.793-2.076c.355-1.155.351-8.532.136-9.913a3.468,3.468,0,0,0-2.049-2.473L4.592,2.449Z"/>
  <path id="Path_74" data-name="Path 74" d="M29.385,4.988c.824-2.734,3.857,2.932,3.83,4l.5-4.188c1.558-.89,1.833-.195,1.948,1.217.087,1.054.09,8.17-.174,8.556-1.461,2.125-3.277-3.343-3.844-4.195-.469.014.118,3.541-.33,4.195-.469.682-1.93.261-1.93-.191C29.385,12.491,29.006,6.247,29.385,4.988Z"/>
  <path id="Path_75" data-name="Path 75" d="M26.777,4.467c.6.181.786,1.52.191,1.93-.7.48-3.77-.184-3.847.358V8.644c4.341-.689,4.358,2.769,0,2.083v2.09c.929.16,3.169-.31,3.843.153s.261,1.93-.191,1.93H21.559c-.383,0-.5-.849-.539-1.2a55.466,55.466,0,0,1,.017-8.365c.052-.289.278-.87.522-.87A37.747,37.747,0,0,1,26.777,4.467Z"/>
  <path id="Path_76" data-name="Path 76" d="M6.683,4.537a3.233,3.233,0,0,1,3.9,2.56,23.209,23.209,0,0,1-.136,5.739c-.908,2.967-5.576,2.657-6.087-.56C4,10.011,3.831,5.166,6.683,4.537ZM6.429,7.076a37.748,37.748,0,0,0,0,5.217c0,.692,2.087.689,2.087,0V7.076C8.516,6.509,6.683,6.231,6.429,7.076Z"/>
  <path id="Path_77" data-name="Path 77" d="M14.777,10.728c-.216.205.32,3.155-.153,3.843a1.144,1.144,0,0,1-1.878-.243,85.335,85.335,0,0,1,0-9.29c.466-1.426,7.513-.936,6.056,3.621-.807,2.525-3.847,1.9-4.021,2.066Zm0-2.083c2.915.477,2.915-2.567,0-2.09Z"/>
</svg>
