<svg id="Icon_-_Instagram" data-name="Icon - Instagram" xmlns="http://www.w3.org/2000/svg" width="30" height="30" viewBox="0 0 30 30">
  <path id="Path_80" data-name="Path 80" d="M29.991,14.637c0-.069-.006-.139-.009-.208l-.007-.123c0-.024,0-.045,0-.067A15,15,0,0,0,15,0,15.165,15.165,0,0,0,0,15a15,15,0,0,0,29.734,2.818c.015-.067.026-.134.039-.2.015-.091.03-.184.048-.277A15.681,15.681,0,0,0,30,15.408c0-.136,0-.273,0-.409C30,14.88,30,14.759,29.991,14.637Zm-5.153,4.824A4.827,4.827,0,0,1,21.5,24.129c-3.192,1.143-6.89.887-10.091.651-4.166-.3-5.919-2.393-6.068-6.466A51.218,51.218,0,0,1,5.324,11.4,6.679,6.679,0,0,1,6.947,6.806l.03-.03a5.645,5.645,0,0,1,3.467-1.491,44.677,44.677,0,0,1,8.994-.08c3.7.342,5.41,2.391,5.544,6.014A45.94,45.94,0,0,1,24.839,19.461Z"/>
  <path id="Path_81" data-name="Path 81" d="M23.294,12.186c-.089-1.69-.206-3.469-1.744-4.508a8.3,8.3,0,0,0-4.369-.911,42.055,42.055,0,0,0-6.559.208l-.037.006a3.7,3.7,0,0,0-3.3,3.138,29.715,29.715,0,0,0-.32,4.423A36.855,36.855,0,0,0,7.18,19.3a3.875,3.875,0,0,0,3.845,3.625,61.5,61.5,0,0,0,7.8.041c1.818-.03,3.869-1.05,4.17-2.986A38.854,38.854,0,0,0,23.294,12.186Zm-8.219,7.845c-3.947.084-6.04-4.495-4.291-7.734a4.617,4.617,0,0,1,3.361-2.337l.048-.006C21.381,8.6,22.448,20.009,15.075,20.031Zm5.505-9.208a1.134,1.134,0,0,1-.6-2.173l.043-.015a1.436,1.436,0,0,1,.7-.045A1.136,1.136,0,0,1,20.58,10.823Z"/>
  <path id="Path_82" data-name="Path 82" d="M15.964,18.085c-4.486,1.008-5.635-5.594-1.385-6.395l.045-.009a3.2,3.2,0,0,1,3.692,2.6A3.052,3.052,0,0,1,15.964,18.085Z"/>
</svg>
