<svg id="Icon-_Location" data-name="Icon- Location" xmlns="http://www.w3.org/2000/svg" width="25.225" height="30" viewBox="0 0 25.225 30">
  <path id="Path_78" data-name="Path 78" d="M11.31.088C19.157-.9,23.085,6.53,19.6,13.26c-1.776,3.426-4.317,6.851-6.411,10.091-.507.405-1.03.139-1.372-.334C9.543,18.6,3.924,12.71,4.361,7.532A8.337,8.337,0,0,1,11.31.088ZM12.235,5.1c-4.255.5-3.834,6.98.6,6.823C17.547,11.761,16.972,4.545,12.235,5.1Z"/>
  <path id="Path_79" data-name="Path 79" d="M3.67,15.326l.147,1.042a2.028,2.028,0,0,0-2.375,2.048,57.474,57.474,0,0,0,0,8.05c.1,1.159.537,1.938,1.774,2.054,5.895.553,12.641-.429,18.626,0a1.9,1.9,0,0,0,1.909-1.788c.292-2.725-.221-5.938,0-8.718a2.008,2.008,0,0,0-2.243-1.652c-.114-1.382.873-1.266,1.844-.854a2.934,2.934,0,0,1,1.7,2.526,60.065,60.065,0,0,1,.014,8.827,3.276,3.276,0,0,1-3.1,2.977c-6.06-.4-12.775.516-18.758,0A3.152,3.152,0,0,1,.309,27.6c-.416-1.526-.346-7.537-.176-9.3a3,3,0,0,1,3.534-2.973Z"/>
</svg>
