<svg xmlns="http://www.w3.org/2000/svg" width="30" height="30" viewBox="0 0 30 30">
  <defs>
    <style>
      .cls-1 {
        fill: #050505;
      }
    </style>
  </defs>
  <path id="Icon_-_Phone" data-name="Icon - Phone" class="cls-1" d="M13.633,29.921C31.993,31.634,36.45,5.079,19.025.612-2.245-4.841-7.933,27.909,13.633,29.921ZM8.986,23.144c-1.428-1.228-2.42-1.832-2.238-3.889.383-4.3,8.616-12.324,13.071-12.361,1.315-.01,3.93,1.579,3.252,2.888l-4.233,3.689-2.194-1.862a11.509,11.509,0,0,0-5.014,4.872c0,.771,2.009,1.584,1.773,2.471-.2.76-3.324,2.85-3.681,3.985l-.737.207Z"/>
</svg>
