<svg id="Icon_-_WhatsApp" data-name="Icon - WhatsApp" xmlns="http://www.w3.org/2000/svg" width="30" height="30" viewBox="0 0 30 30">
  <path id="Path_83" data-name="Path 83" d="M25.144,3.945c-.02-.019-.039-.037-.058-.054A13.766,13.766,0,0,0,15.577,0h-.03c-.329-.006-.664,0-1,.015H14.49Q13.7.044,12.965.131h-.022A13.337,13.337,0,0,0,2.469,6.75s-.006,0-.006.009A15,15,0,1,0,25.144,3.945ZM11.894,23.038c-1.61-.7-2.956,0-4.538.489-.374.1-1.108.37-1.127-.214.017-.816.716-2.4.831-3.41a4.448,4.448,0,0,0-.318-2.022C3.255,9.149,14.679,1.735,21.179,8.4l.035.035C27.862,15,20.645,26.532,11.894,23.038Z"/>
  <path id="Path_84" data-name="Path 84" d="M21.013,10.593c-4.562-6.914-16.068-1.251-12.87,6.73A3.747,3.747,0,0,1,8.492,20.5c-.063.286-.184.654-.017.864l.013.015c.242.24,1.117-.145,1.839-.232,1.026-.173,1.92.448,2.883.7a7.38,7.38,0,0,0,9.007-6.124A7.688,7.688,0,0,0,21.013,10.593Zm-2,7.726c-2.225,2.3-7.05-1.409-8.256-4.145-.4-.994-.485-2.457.219-3.089,1.052-.953,2.3.5,2.264,1.608,0,.74-.476,1.292-.188,1.9.511,1,2.434,2.561,3.423,2.061l.03-.015a3.165,3.165,0,0,1,1.153-.472C18.851,16.1,20,17.276,19.013,18.319Z"/>
</svg>
